# xmcd CD database file
#
# Track frame offsets:
#	150
#	19985
#	37640
#
# Disc length: 861 seconds
#
# Revision: 0
# Processed by: cddbd v1.5.1PL2 Copyright (c) Steve Scherf et al.
# Submitted via: CDex 1.40Release
#
DISCID=16035b03
DTITLE=AIR - We can sing a song
DYEAR=2005
DGENRE=Rock
TTITLE0=We can sing a song
TTITLE1=gold fish
TTITLE2=Hair Do
EXTD=YEAR: 2005 ID3G: 17
EXTT0=
EXTT1=
EXTT2=
PLAYORDER=
